<svg width="43" height="43" viewBox="0 0 43 43" fill="none" xmlns="http://www.w3.org/2000/svg">
<path d="M25.0835 5.85697C25.0835 4.60101 24.0658 3.58334 22.8099 3.58334H20.1922C18.9345 3.58334 17.9168 4.60101 17.9168 5.85697C17.9168 6.89255 17.2073 7.78122 16.2416 8.16105C16.0893 8.22197 15.937 8.28647 15.7883 8.35097C14.837 8.76305 13.7064 8.63764 12.9718 7.90484C12.5455 7.47881 11.9674 7.23948 11.3647 7.23948C10.762 7.23948 10.1839 7.47881 9.75758 7.90484L7.905 9.75743C7.47896 10.1838 7.23964 10.7618 7.23964 11.3646C7.23964 11.9673 7.47896 12.5453 7.905 12.9717C8.63958 13.7063 8.765 14.835 8.34933 15.7882C8.28402 15.9382 8.2213 16.0893 8.1612 16.2415C7.78137 17.2072 6.8927 17.9167 5.85712 17.9167C4.60116 17.9167 3.5835 18.9343 3.5835 20.1903V22.8097C3.5835 24.0657 4.60116 25.0833 5.85712 25.0833C6.8927 25.0833 7.78137 25.7928 8.1612 26.7586C8.22212 26.9108 8.28662 27.0631 8.34933 27.2118C8.7632 28.1632 8.63779 29.2938 7.905 30.0283C7.47896 30.4547 7.23964 31.0327 7.23964 31.6355C7.23964 32.2382 7.47896 32.8163 7.905 33.2426L9.75758 35.0952C10.1839 35.5212 10.762 35.7605 11.3647 35.7605C11.9674 35.7605 12.5455 35.5212 12.9718 35.0952C13.7064 34.3606 14.8352 34.2352 15.7883 34.6491C15.937 34.7153 16.0893 34.7781 16.2416 34.839C17.2073 35.2188 17.9168 36.1075 17.9168 37.1431C17.9168 38.399 18.9345 39.4167 20.1905 39.4167H22.8099C24.0658 39.4167 25.0835 38.399 25.0835 37.1431C25.0835 36.1075 25.793 35.2188 26.7587 34.8372C26.911 34.7781 27.0633 34.7153 27.212 34.6508C28.1634 34.2352 29.2939 34.3624 30.0267 35.0952C30.2378 35.3064 30.4885 35.474 30.7644 35.5883C31.0403 35.7026 31.3361 35.7614 31.6347 35.7614C31.9334 35.7614 32.2291 35.7026 32.505 35.5883C32.7809 35.474 33.0316 35.3064 33.2427 35.0952L35.0953 33.2426C35.5214 32.8163 35.7607 32.2382 35.7607 31.6355C35.7607 31.0327 35.5214 30.4547 35.0953 30.0283C34.3607 29.2938 34.2353 28.165 34.6492 27.2118C34.7155 27.0631 34.7782 26.9108 34.8391 26.7586C35.219 25.7928 36.1076 25.0833 37.1432 25.0833C38.3992 25.0833 39.4168 24.0657 39.4168 22.8097V20.1921C39.4168 18.9361 38.3992 17.9185 37.1432 17.9185C36.1076 17.9185 35.219 17.209 34.8373 16.2433C34.7773 16.0911 34.7146 15.9399 34.6492 15.79C34.2371 14.8386 34.3625 13.7081 35.0953 12.9735C35.5214 12.5471 35.7607 11.9691 35.7607 11.3663C35.7607 10.7636 35.5214 10.1856 35.0953 9.75922L33.2427 7.90664C32.8164 7.4806 32.2383 7.24128 31.6356 7.24128C31.0329 7.24128 30.4548 7.4806 30.0285 7.90664C29.2939 8.64122 28.1652 8.76664 27.212 8.35276C27.062 8.28684 26.9109 8.22353 26.7587 8.16284C25.793 7.78122 25.0835 6.89255 25.0835 5.85876V5.85697Z" stroke="white" stroke-width="2"/>
<path d="M28.6668 21.5C28.6668 23.4007 27.9118 25.2236 26.5678 26.5676C25.2238 27.9116 23.4009 28.6667 21.5002 28.6667C19.5994 28.6667 17.7766 27.9116 16.4326 26.5676C15.0886 25.2236 14.3335 23.4007 14.3335 21.5C14.3335 19.5993 15.0886 17.7764 16.4326 16.4324C17.7766 15.0884 19.5994 14.3333 21.5002 14.3333C23.4009 14.3333 25.2238 15.0884 26.5678 16.4324C27.9118 17.7764 28.6668 19.5993 28.6668 21.5V21.5Z" stroke="white" stroke-width="2"/>
</svg>
