<svg width="44" height="44" viewBox="0 0 44 44" fill="none" xmlns="http://www.w3.org/2000/svg">
<path d="M15.9628 36.1294L33 19.0923L24.9077 10.9999L7.8705 28.0371C7.63595 28.272 7.46934 28.5659 7.38833 28.8878L5.5 38.4999L15.1103 36.6116C15.433 36.5309 15.7282 36.3641 15.9628 36.1294ZM38.5 13.5923C39.1874 12.9047 39.5736 11.9722 39.5736 10.9999C39.5736 10.0277 39.1874 9.09521 38.5 8.40761L35.5923 5.49994C34.9047 4.81255 33.9723 4.42639 33 4.42639C32.0277 4.42639 31.0953 4.81255 30.4077 5.49994L27.5 8.40761L35.5923 16.4999L38.5 13.5923Z" fill="#5E17EB"/>
</svg>
